<?xml version="1.0" encoding="utf-8"?>
<svg version="1.1" id="Layer_1" xmlns="http://www.w3.org/2000/svg" xmlns:xlink="http://www.w3.org/1999/xlink" x="0px" y="0px"
	 viewBox="0 0 80 80" style="enable-background:new 0 0 80 80;" xml:space="preserve">
<g>
	<g>
		<path fill="rgba(0, 0, 0, .7)" d="M0,0l36.9,36.9c0.2,0.1,0.9,0.4,1.6-0.2l2.2-2.2c-4.3-2.8-2.5-5.8-2.5-5.8c0.9-2.2,0.6-3.5,0.6-3.5
			c-0.3-2.2,1-0.6,1-0.6c1.2,1.6,0.6,3.5,0.6,3.5c-0.7,2.6,0.7,4.1,2,4.8l0.6-0.6c1-0.7,2-1,2.6-1c-2.6-3.5-4.8-7.7,0.6-13.1
			c1.6-1.6,3.2-2.2,5.1-2.2c0.3-0.6,0.9-2.2,3.8-3.5c0,0,1.6,0.9,2.2,5.1c1.2,0.7,2.5,1.6,3.8,2.9c1.3,1.2,2.3,2.5,2.9,3.8
			c4.5,1,5.4,2.3,5.5,2.3c-1.3,2.5-2.9,3.5-3.5,3.5c0,1.9-0.6,3.5-2.2,5.1c-5.1,5.1-9.6,3.2-13.1,0.6c0,0.9-0.3,2.2-1.6,3.5
			l-3.8,3.5c-1,0.9-0.4,2-0.1,2.4L80,80V0H0z"/>
	</g>
</g>
</svg>
